<?xml version="1.0" encoding="UTF-8"?>
<svg id="Layer_1" xmlns="http://www.w3.org/2000/svg" version="1.1" viewBox="0 0 169.1 28.4">
  <!-- Generator: Adobe Illustrator 29.4.0, SVG Export Plug-In . SVG Version: 2.1.0 Build 152)  -->
  <defs>
    <style>
      .st0 {
        fill: #ff9d00;
      }

      .st1 {
        fill: #011140;
      }
    </style>
  </defs>
  <polygon class="st1" points="13 23.8 13 25.8 20.6 25.8 14.5 21.5 13 23.8"/>
  <polygon class="st1" points="31.7 4.6 31.7 2.6 13.7 2.6 13.7 7.2 24.2 7.2 15.6 19.9 24.1 25.8 31.9 25.8 31.9 21.1 20.6 21.1 31.7 4.6"/>
  <path class="st1" d="M50.8,15.8c0,1.8-.5,3.2-1.4,4.2-.9,1-2.1,1.5-3.7,1.5s-2.9-.5-3.8-1.5c-.9-1-1.3-2.4-1.3-4.2V2.6h-5.4v13.2c0,3.3.9,5.9,2.8,7.7,1.8,1.8,4.4,2.8,7.8,2.8s5.9-.9,7.8-2.8c1.8-1.8,2.8-4.4,2.8-7.7V2.6h-5.4v13.2Z"/>
  <polygon class="st1" points="59 7.3 66 7.3 66 25.8 71.5 25.8 71.5 7.3 78.6 7.3 78.6 2.6 59 2.6 59 7.3"/>
  <polygon class="st1" points="87 2.6 81.6 2.6 81.6 25.8 87 25.8 87 16.5 87 16.5 87 11.6 87 11.6 87 2.6"/>
  <polygon class="st1" points="96.8 11.6 96.8 11.6 96.8 16.5 96.8 16.5 96.8 25.8 102.2 25.8 102.2 2.6 96.8 2.6 96.8 11.6"/>
  <path class="st1" d="M125.1,3.5c-1.9-1-4.1-1.5-6.6-1.5s-4.7.5-6.6,1.5-3.3,2.4-4.4,4.3-1.5,4-1.5,6.4.5,4.6,1.5,6.4,2.5,3.3,4.4,4.3,4.1,1.5,6.6,1.5,4.7-.5,6.6-1.5,3.3-2.4,4.4-4.3,1.5-4,1.5-6.4-.5-4.6-1.5-6.4-2.5-3.3-4.4-4.3ZM124.7,18c-.6,1.1-1.4,2-2.5,2.6s-2.3.9-3.7.9-2.6-.3-3.7-.9-1.9-1.5-2.5-2.6c-.6-1.1-.9-2.4-.9-3.8s.3-2.7.9-3.8c.6-1.1,1.4-2,2.5-2.6s2.3-.9,3.7-.9,2.6.3,3.7.9,1.9,1.5,2.5,2.6.9,2.4.9,3.8-.3,2.7-.9,3.8Z"/>
  <path class="st1" d="M144.2,21.1h-4.1v-10.5l-5.4-6.3v21.6h9.5c2.4,0,4.5-.5,6.3-1.4.4-.2.7-.4,1-.6l-3.3-3.9c-1.1.8-2.4,1.2-3.9,1.2Z"/>
  <path class="st1" d="M156.1,14.2c0-2.3-.5-4.4-1.5-6.1s-2.4-3.1-4.2-4.1c-1.8-.9-3.9-1.4-6.3-1.4h-8l4.1,4.7h4c1.3,0,2.4.3,3.4.8s1.7,1.4,2.3,2.4c.5,1,.8,2.2.8,3.6s-.4,3-1.1,4.1l3.5,4.1c.6-.6,1.1-1.3,1.5-2.1,1-1.8,1.5-3.8,1.5-6.1Z"/>
  <rect class="st0" x="88.6" y="11.6" width="6.7" height="4.9"/>
</svg>