<?xml version="1.0" encoding="utf-8"?>
<!-- Generator: Adobe Illustrator 28.1.0, SVG Export Plug-In . SVG Version: 6.00 Build 0)  -->
<svg version="1.1" id="Layer_1" xmlns="http://www.w3.org/2000/svg" xmlns:xlink="http://www.w3.org/1999/xlink" x="0px" y="0px"
	 viewBox="0 0 169.1 28.4" style="enable-background:new 0 0 169.1 28.4;" xml:space="preserve">
<style type="text/css">
	.st0{fill:#4B5563;}
	.st1{fill:#C2C8CE;}
	.st2{font-family:'Futura-Medium';}
	.st3{font-size:19.9868px;}
</style>
<path class="st0" d="M5.2,3.4l-4.4,7.8C0.3,12,0,13.1,0,14.2c0,1.1,0.3,2.1,0.8,3.1l4.3,7.8c0.5,1,1.3,1.8,2.3,2.4
	c1,0.6,2.1,0.9,3.2,0.9h4.6L9,17.4c-0.5-1-0.8-2-0.8-3.1S8.4,12,9,11.1l6.3-10.9h-4.6C9.5,0.1,8.4,0.4,7.5,1
	C6.5,1.6,5.7,2.4,5.2,3.4z"/>
<path class="st1" d="M15.8,3.2L11.5,11c-0.5,0.9-0.8,2-0.8,3.1s0.3,2.1,0.8,3.1l4.3,7.8c0.5,1,1.3,1.8,2.3,2.4
	c1,0.6,2.1,0.9,3.2,0.9h4.6l-6.3-10.9c-0.5-1-0.8-2-0.8-3.1s0.3-2.2,0.8-3.1L25.9,0h-4.6c-1.1,0-2.2,0.3-3.2,0.9
	C17.2,1.4,16.4,2.2,15.8,3.2z"/>
<path class="st0" d="M23.5,8.6l1.9,3.7h6.3c0.9,0,1.5-1,1.1-1.8l-5.1-9.1L23.5,8.6z"/>
<path class="st0" d="M25.5,16.1l-1.9,3.2l4.1,7.9l5.1-9.2c0.5-0.8-0.1-1.8-1.1-1.8H25.5z"/>
<text transform="matrix(1 0 0 1 39.3921 16.3254)" class="st0 st2 st3">Stable</text>
<text transform="matrix(1 0 0 1 96.1021 23.7346)" class="st0 st2 st3">Crypto</text>
</svg>
