<?xml version="1.0" encoding="UTF-8"?>
<svg id="Layer_1" xmlns="http://www.w3.org/2000/svg" version="1.1" viewBox="0 0 143 24">
  <!-- Generator: Adobe Illustrator 29.4.0, SVG Export Plug-In . SVG Version: 2.1.0 Build 152)  -->
  <defs>
    <style>
      .st0 {
        fill: none;
      }

      .st1 {
        fill: #fffffa;
      }

      .st2 {
        fill: #ff9d00;
      }
    </style>
  </defs>
  <path class="st0" d="M121.3,18.1h3.7c1.4,0,2.6-.4,3.5-1.1l-7.2-8.4v9.4Z"/>
  <path class="st0" d="M130.7,12c0-1.2-.2-2.3-.7-3.2-.5-.9-1.2-1.6-2-2.1s-1.9-.8-3-.8h-3.5l8.4,9.8c.6-1,1-2.2,1-3.7Z"/>
  <path class="st0" d="M105.2,6.3c-1-.5-2.1-.8-3.3-.8s-2.3.3-3.3.8-1.7,1.3-2.2,2.3c-.5,1-.8,2.1-.8,3.4s.3,2.5.8,3.4c.5,1,1.3,1.8,2.2,2.3s2,.8,3.3.8,2.3-.3,3.3-.8,1.7-1.3,2.2-2.3c.5-1,.8-2.1.8-3.4s-.3-2.5-.8-3.4-1.3-1.8-2.2-2.3Z"/>
  <polygon class="st1" points="7.4 20.6 7.4 22.4 14.3 22.4 8.8 18.6 7.4 20.6"/>
  <polygon class="st1" points="24.2 3.4 24.2 1.6 8.1 1.6 8.1 5.7 17.5 5.7 9.8 17.1 17.3 22.4 24.4 22.4 24.4 18.1 14.2 18.1 24.2 3.4"/>
  <path class="st1" d="M41.3,13.4c0,1.6-.4,2.8-1.2,3.7-.8.9-1.9,1.4-3.3,1.4s-2.6-.5-3.4-1.4c-.8-.9-1.2-2.2-1.2-3.7V1.6h-4.9v11.8c0,3,.8,5.3,2.5,6.9,1.7,1.7,4,2.5,7,2.5s5.3-.8,6.9-2.5c1.6-1.7,2.5-4,2.5-6.9V1.6h-4.9v11.8Z"/>
  <polygon class="st1" points="48.6 5.9 54.9 5.9 54.9 22.4 59.8 22.4 59.8 5.9 66.1 5.9 66.1 1.6 48.6 1.6 48.6 5.9"/>
  <polygon class="st1" points="73.7 1.6 68.8 1.6 68.8 22.4 73.7 22.4 73.7 14 73.7 14 73.7 9.7 73.7 9.7 73.7 1.6"/>
  <polygon class="st1" points="82.5 9.7 82.5 9.7 82.5 14 82.5 14 82.5 22.4 87.3 22.4 87.3 1.6 82.5 1.6 82.5 9.7"/>
  <path class="st1" d="M107.8,2.5c-1.7-.9-3.7-1.4-5.9-1.4s-4.2.5-5.9,1.4-3,2.2-3.9,3.8-1.4,3.6-1.4,5.7.5,4.1,1.4,5.7,2.2,2.9,3.9,3.8,3.7,1.4,5.9,1.4,4.2-.5,5.9-1.4,3-2.2,3.9-3.8,1.4-3.6,1.4-5.7-.5-4.1-1.4-5.7-2.2-2.9-3.9-3.8ZM107.4,15.4c-.5,1-1.3,1.8-2.2,2.3s-2.1.8-3.3.8-2.3-.3-3.3-.8-1.7-1.3-2.2-2.3c-.5-1-.8-2.1-.8-3.4s.3-2.5.8-3.4c.5-1,1.3-1.8,2.2-2.3s2-.8,3.3-.8,2.3.3,3.3.8,1.7,1.3,2.2,2.3.8,2.1.8,3.4-.3,2.5-.8,3.4Z"/>
  <path class="st1" d="M124.9,18.1h-3.7v-9.4l-4.9-5.7v19.4h8.5c2.1,0,4-.4,5.6-1.3.3-.2.6-.3.9-.5l-3-3.5c-1,.7-2.1,1.1-3.5,1.1Z"/>
  <path class="st1" d="M135.6,12c0-2.1-.4-3.9-1.3-5.5s-2.1-2.8-3.7-3.6c-1.6-.9-3.5-1.3-5.6-1.3h-7.2l3.6,4.2h3.5c1.1,0,2.2.3,3,.8s1.6,1.2,2,2.1c.5.9.7,2,.7,3.2s-.3,2.7-1,3.7l3.1,3.7c.5-.5,1-1.2,1.4-1.8.9-1.6,1.3-3.4,1.3-5.5Z"/>
  <rect class="st2" x="75.1" y="9.7" width="6" height="4.4"/>
</svg>